<svg xmlns="http://www.w3.org/2000/svg" height="797pt" version="1.1" viewBox="0 -68 797.50077 797" width="797pt">
<g id="surface1">
<path d="M 397.929688 237.929688 C 384.839844 237.929688 374.222656 248.535156 374.222656 261.632812 C 374.222656 274.722656 384.839844 285.328125 397.929688 285.328125 L 510.910156 285.328125 C 523.996094 285.328125 534.613281 274.722656 534.613281 261.632812 C 534.613281 248.535156 523.996094 237.929688 510.910156 237.929688 Z M 397.929688 237.929688 " style=" stroke:none;fill-rule:nonzero;fill:rgb(0%,0%,0%);fill-opacity:1;" />
<path d="M 349.328125 512.871094 C 362.425781 512.871094 373.039062 502.253906 373.039062 489.167969 C 373.039062 476.078125 362.425781 465.46875 349.328125 465.46875 L 144.320312 465.46875 C 131.238281 465.46875 120.625 476.078125 120.625 489.167969 C 120.625 502.253906 131.238281 512.871094 144.320312 512.871094 Z M 349.328125 512.871094 " style=" stroke:none;fill-rule:nonzero;fill:rgb(0%,0%,0%);fill-opacity:1;" />
<path d="M 183.621094 614.660156 L 39.835938 614.660156 C 26.746094 614.660156 16.136719 625.265625 16.136719 638.355469 C 16.136719 651.453125 26.746094 662.058594 39.835938 662.058594 L 183.621094 662.058594 C 196.714844 662.058594 207.328125 651.453125 207.328125 638.355469 C 207.328125 625.265625 196.714844 614.660156 183.621094 614.660156 Z M 183.621094 614.660156 " style=" stroke:none;fill-rule:nonzero;fill:rgb(0%,0%,0%);fill-opacity:1;" />
<path d="M 63.535156 47.65625 L 246.828125 47.65625 C 259.917969 47.65625 270.53125 37.042969 270.53125 23.949219 C 270.53125 10.863281 259.917969 0.25 246.828125 0.25 L 63.535156 0.25 C 50.449219 0.25 39.835938 10.863281 39.835938 23.949219 C 39.835938 37.042969 50.449219 47.65625 63.535156 47.65625 Z M 63.535156 47.65625 " style=" stroke:none;fill-rule:nonzero;fill:rgb(0%,0%,0%);fill-opacity:1;" />
<path d="M 232.820312 133.636719 C 219.730469 133.636719 209.125 144.25 209.125 157.34375 C 209.125 170.429688 219.730469 181.042969 232.820312 181.042969 L 346.082031 181.042969 C 359.171875 181.042969 369.78125 170.429688 369.78125 157.34375 C 369.78125 144.25 359.171875 133.636719 346.082031 133.636719 Z M 232.820312 133.636719 " style=" stroke:none;fill-rule:nonzero;fill:rgb(0%,0%,0%);fill-opacity:1;" />
<path d="M 23.699219 70.582031 L 430.722656 70.582031 L 430.722656 117.984375 L 23.699219 117.984375 C 10.617188 117.984375 0 107.359375 0 94.28125 C 0 81.179688 10.617188 70.582031 23.699219 70.582031 Z M 23.699219 70.582031 " style=" stroke:none;fill-rule:nonzero;fill:rgb(0%,0%,0%);fill-opacity:1;" />
<path d="M 609.851562 102.703125 L 491.988281 163.609375 C 485.664062 166.875 478.128906 162.28125 478.128906 155.164062 L 478.128906 33.378906 C 478.128906 26.261719 485.660156 21.675781 491.980469 24.941406 L 609.851562 85.824219 C 616.707031 89.363281 616.707031 99.167969 609.851562 102.703125 Z M 609.851562 102.703125 " style=" stroke:none;fill-rule:nonzero;fill:rgb(0%,0%,0%);fill-opacity:1;" />
<path d="M 792.359375 336.425781 L 674.488281 397.328125 C 668.167969 400.59375 660.628906 396.003906 660.628906 388.890625 L 660.628906 267.105469 C 660.628906 259.984375 668.164062 255.394531 674.488281 258.660156 L 792.359375 319.550781 C 799.214844 323.082031 799.214844 332.886719 792.359375 336.425781 Z M 792.359375 336.425781 " style=" stroke:none;fill-rule:nonzero;fill:rgb(0%,0%,0%);fill-opacity:1;" />
<path d="M 603.800781 570.15625 L 485.925781 631.058594 C 479.605469 634.324219 472.066406 629.734375 472.066406 622.621094 L 472.066406 500.828125 C 472.066406 493.71875 479.605469 489.121094 485.925781 492.390625 L 603.800781 553.277344 C 610.652344 556.816406 610.652344 566.613281 603.800781 570.15625 Z M 603.800781 570.15625 " style=" stroke:none;fill-rule:nonzero;fill:rgb(0%,0%,0%);fill-opacity:1;" />
<path d="M 225.324219 304.292969 L 615.261719 304.292969 L 615.261719 351.691406 L 225.324219 351.691406 L 199.941406 403.535156 C 195.960938 411.660156 187.699219 416.816406 178.652344 416.816406 L 36.367188 416.816406 C 30.519531 416.816406 26.695312 410.691406 29.273438 405.4375 L 67.1875 327.996094 L 29.273438 250.550781 C 26.695312 245.304688 30.519531 239.171875 36.367188 239.171875 L 178.652344 239.171875 C 187.699219 239.171875 195.960938 244.328125 199.941406 252.457031 Z M 225.324219 304.292969 " style=" stroke:none;fill-rule:nonzero;fill:rgb(0%,0%,0%);fill-opacity:1;" />
<path d="M 23.699219 538.023438 L 419.914062 538.023438 L 419.914062 585.425781 L 23.699219 585.425781 C 10.617188 585.425781 0 574.808594 0 561.722656 C 0 548.628906 10.617188 538.023438 23.699219 538.023438 Z M 23.699219 538.023438 " style=" stroke:none;fill-rule:nonzero;fill:rgb(0%,0%,0%);fill-opacity:1;" />
</g>
</svg>