<svg id="Layer_1" data-name="Layer 1" xmlns="http://www.w3.org/2000/svg" viewBox="0 0 454.56 104.13">
  <defs>
    <style>
.cls-1{fill:#fff;}
</style>
  </defs>
  <title>August Infotech</title>
  <path fill="transparent" d="M102.12,431.63V330H556.68q0,52.07,0,104.13H102.12q0-.87,0-1.75a2.28,2.28,0,0,0,2.34,1.62H234.59a2,2,0,0,0,1.89-3.2q-18.42-33.56-36.84-67.12a2.29,2.29,0,0,0-2.21-1.32c-7.14,0-14.29,0-21.43,0a2.12,2.12,0,0,0-1.92,3.27q11.72,21.81,23.34,43.68c.1.19.18.38.28.6H141.35l16.87-30.66c.17.27.3.47.42.68l3.52,6.41q2.64,4.83,5.29,9.65a2,2,0,0,0,3.05.76,2,2,0,0,0,.38-2.78q-5.37-9.8-10.74-19.6a2,2,0,0,0-3.78,0l-20.05,36.46a2.54,2.54,0,0,0-.32.94c-.13,1.33.8,2.19,2.34,2.19h60.93a15.51,15.51,0,0,0,2.14-.07,1.93,1.93,0,0,0,1.5-2.68,7.61,7.61,0,0,0-.36-.72l-23.1-43.28c-.13-.24-.25-.49-.42-.84h.79c5.33,0,10.66,0,16,0a1.06,1.06,0,0,1,1.09.64q17.08,31.16,34.2,62.3c.11.21.2.43.33.69H107.54l50.63-92,.4.7c2.76,5,5.54,10.08,8.26,15.14a2.63,2.63,0,0,0,2.63,1.53c7.17,0,14.33,0,21.5,0a7.33,7.33,0,0,0,.94,0,1.88,1.88,0,0,0,1.58-1.28,2.11,2.11,0,0,0-.25-1.86l-10.39-19a4.49,4.49,0,0,0-.28-.46,2,2,0,0,0-2.27-.73,1.89,1.89,0,0,0-1.3,1.91,3.3,3.3,0,0,0,.41,1.25q4.2,7.73,8.42,15.43c.13.24.24.49.37.75l-.16.05q-8.8,0-17.6,0a.87.87,0,0,1-.6-.39c-.43-.71-.81-1.44-1.2-2.17q-4.28-7.83-8.55-15.67a2.08,2.08,0,0,0-1.89-1.27,2,2,0,0,0-1.89,1.28c-.25.5-.54,1-.8,1.47L134,373.6Zm219.31-20.56q0-10.41,0-20.83c0-1-.16-1.19-1.21-1.19h-1.55c-1.39,0-1.46.06-1.46,1.42q0,15.55,0,31.1a2.11,2.11,0,0,1-.06.79.93.93,0,0,1-.53.51,1.13,1.13,0,0,1-.71-.22c-.14-.08-.2-.29-.3-.44a276.09,276.09,0,0,0-22.89-31.55,3.78,3.78,0,0,0-3.63-1.65c-1.1.13-1.26.18-1.26,1.31q0,20.72,0,41.45c0,.16,0,.31,0,.47a.75.75,0,0,0,.83.84h2c1.3,0,1.4-.1,1.41-1.42q0-16.59,0-33.19c0-.44-.09-.94.46-1.14s.85.23,1.15.59c.94,1.17,1.89,2.33,2.8,3.52a328.88,328.88,0,0,1,21,31,1.07,1.07,0,0,0,1.07.63c.56,0,1.12,0,1.68,0,1.05,0,1.2-.14,1.2-1.2Q321.43,421.48,321.42,411.07Zm42.75-.1-.17,0c.27,2.19.39,4.42.84,6.58a19.81,19.81,0,0,0,22.28,16.35c7.25-.77,12.66-4.33,15.84-11,3-6.21,3.18-12.75,1.61-19.34a19.38,19.38,0,0,0-8.73-12.49,20.46,20.46,0,0,0-13.13-2.9c-7.06.69-12.39,4.06-15.76,10.37A26,26,0,0,0,364.17,411ZM524,411q0,5,0,10.08,0,5.51,0,11c0,.8.21,1,1,1h2.08c1.06,0,1.23-.17,1.23-1.26q0-9.37,0-18.74c0-1,.17-1.18,1.17-1.18H551c1,0,1.19.2,1.19,1.17q0,3.19,0,6.38,0,6.28,0,12.56c0,.87.19,1.06,1.07,1.06h1.88c1.23,0,1.35-.12,1.35-1.34q0-20.69,0-41.38c0-.13,0-.27,0-.4,0-.67-.27-.92-1-.93s-1.43,0-2.15,0c-1,0-1.19.15-1.19,1.21q0,8.3,0,16.59c0,1.2-.15,1.35-1.36,1.35H529.64c-1.22,0-1.34-.13-1.34-1.34q0-8.33,0-16.66c0-.94-.21-1.15-1.14-1.15h-1.88c-1.15,0-1.28.12-1.28,1.26Q524,400.66,524,411ZM309.08,375.31h1.34c.9,0,1.19-.41.87-1.24-3.57-9.21-7.08-18.45-10.75-27.62-1.94-4.85-4.18-9.59-6.27-14.38a1.15,1.15,0,0,0-1.28-.81,12.38,12.38,0,0,1-1.95,0,1.22,1.22,0,0,0-1.38.88c-3.06,7.15-6.26,14.24-9.18,21.45-2.73,6.73-5.17,13.58-7.73,20.38-.37,1-.11,1.34.92,1.34.67,0,1.35,0,2,0a1.22,1.22,0,0,0,1.43-1c1.2-3.44,2.48-6.85,3.7-10.28a1.13,1.13,0,0,1,1.24-.85q9.84,0,19.68,0a1.15,1.15,0,0,1,1.26.91c1.07,3.08,2.14,6.17,3.28,9.22C307.14,375.64,306.64,375.28,309.08,375.31ZM403,346.5h0c0,4.34-.07,8.69,0,13a28,28,0,0,0,.68,5.58c1.26,5.52,4.61,9.15,10.16,10.56a21.67,21.67,0,0,0,8.8.31c5.13-.81,8.91-3.44,10.94-8.33a19.28,19.28,0,0,0,1.47-7.33c.05-9.38,0-18.77,0-28.15,0-.68-.25-.9-.95-.91h-2.08c-1.13,0-1.27.14-1.27,1.28,0,8.78,0,17.56,0,26.34a21.83,21.83,0,0,1-.67,5.17c-.91,3.57-2.89,6.33-6.51,7.63a13.8,13.8,0,0,1-5.76.68c-4.68-.36-7.9-2.69-9.51-7.16a20.36,20.36,0,0,1-1-7q0-12.33,0-24.66c0-.47,0-.94,0-1.41a.77.77,0,0,0-.87-.87H404.1c-1,0-1.14.17-1.14,1.13Q403,339.44,403,346.5Zm-85.06,0h0c0,4.34-.07,8.69,0,13a28,28,0,0,0,.68,5.58c1.26,5.52,4.61,9.15,10.16,10.56a21.62,21.62,0,0,0,8.8.31c5.59-.89,9.46-3.91,11.32-9.33a19.77,19.77,0,0,0,1.1-6.33c0-9.38,0-18.77,0-28.15,0-.68-.25-.9-.95-.91H347c-1.13,0-1.26.14-1.26,1.28,0,8.78,0,17.56,0,26.34A21.56,21.56,0,0,1,345,364c-1,3.88-3.23,6.74-7.28,7.87a14.38,14.38,0,0,1-4.93.44c-4.65-.34-7.89-2.61-9.53-7a20.16,20.16,0,0,1-1.09-7.13q0-12.76,0-25.53c0-.18,0-.36,0-.54a.77.77,0,0,0-.87-.87H319c-1,0-1.14.17-1.14,1.13Q317.9,339.44,317.9,346.5Zm75.16,17.91q0-4.43,0-8.87c0-.9-.16-1-1.07-1.05h-2c-1.08,0-1.22.15-1.22,1.25q0,7.29,0,14.58c0,1.06-.08,1.17-1.12,1.39a30.24,30.24,0,0,1-9.61.55A14,14,0,0,1,365.75,363a27.49,27.49,0,0,1-1.55-12.42,21,21,0,0,1,1.55-6.71c2.43-5.81,6.72-9.19,13.05-9.64a21.78,21.78,0,0,1,11.91,2.28.72.72,0,0,0,1.14-.41l.6-1.49c.51-1.27.46-1.37-.8-2A25.13,25.13,0,0,0,378,330.45a19.08,19.08,0,0,0-15.3,9.83,23.36,23.36,0,0,0-3,10.21,29.91,29.91,0,0,0,1.67,13.27c2.71,6.89,7.7,11.08,15,12.15a36.13,36.13,0,0,0,16-1.57c.56-.17.68-.55.68-1.08C393.06,370.32,393.06,367.36,393.06,364.4ZM450,411q0,10.48,0,21c0,.91.19,1.1,1.1,1.1h24.79c1,0,1.15-.15,1.16-1.11q0-.74,0-1.48c0-1-.17-1.15-1.19-1.15H455.5c-1,0-1.21-.17-1.21-1.2q0-7.52,0-15c0-1.17.14-1.32,1.31-1.32h16.73a.72.72,0,0,0,.78-.81c0-.54,0-1.07,0-1.61,0-1.1-.14-1.24-1.23-1.24H455.49c-1,0-1.19-.17-1.19-1.22q0-6.45,0-12.9c0-1,.18-1.22,1.2-1.22h18.94c.73,0,1-.23,1-1,0-.51,0-1,0-1.54,0-1.08-.15-1.23-1.25-1.23h-22.9c-1.09,0-1.24.15-1.24,1.23Q450,400.66,450,411Zm6.25-34.76c.76-.06,2.12-.15,3.48-.3a15.24,15.24,0,0,0,2.11-.4c5.46-1.39,8.93-4.51,9.34-10.14.32-4.54-1.14-8.24-5-10.8a22.2,22.2,0,0,0-3.1-1.72c-2.77-1.25-5.6-2.37-8.35-3.66a20.89,20.89,0,0,1-4-2.42c-3.48-2.73-3.41-9.94,2.14-11.93a14.8,14.8,0,0,1,4-.79,18.65,18.65,0,0,1,10.55,2.24.72.72,0,0,0,1.14-.4c.26-.59.51-1.19.76-1.79.35-.84.27-1.07-.55-1.48a21.49,21.49,0,0,0-5.78-1.89,22.53,22.53,0,0,0-11.8.62,10,10,0,0,0-6.22,5.47,12.37,12.37,0,0,0-.92,4.85,9.86,9.86,0,0,0,4.12,8.53,18.64,18.64,0,0,0,2.66,1.69c1.53.78,3.12,1.46,4.69,2.16,2.27,1,4.62,1.85,6.8,3,3.4,1.82,4.78,4.82,4.36,8.64a6.41,6.41,0,0,1-3.79,5.46,15.13,15.13,0,0,1-5.92,1.3A23.57,23.57,0,0,1,445.1,370c-.69-.35-1-.21-1.28.52-.21.54-.41,1.09-.61,1.63-.38,1-.31,1.18.69,1.65A29.29,29.29,0,0,0,456.24,376.28Zm27.25,36a26.65,26.65,0,0,0,2,9.71c2.49,5.92,6.71,9.9,13,11.5a30.83,30.83,0,0,0,17.13-1.54.88.88,0,0,0,.59-1.26c-.22-.61-.41-1.23-.62-1.84s-.56-.86-1.22-.57a25.62,25.62,0,0,1-11.21,1.94,14.14,14.14,0,0,1-13.5-9.59,26.84,26.84,0,0,1-.13-18.42,14.3,14.3,0,0,1,9.27-9.31,18.33,18.33,0,0,1,9.88-.48,35,35,0,0,1,5.14,1.89c.71.28,1,.2,1.31-.5.21-.54.4-1.09.6-1.64.39-1.06.34-1.22-.7-1.7A25.12,25.12,0,0,0,503,388.14a18.91,18.91,0,0,0-16.17,9.74C484.39,401.94,483.48,406.39,483.49,412.24ZM332.9,411q0,8.5,0,17c0,1.37,0,2.73,0,4.1,0,.79.22,1,1,1h2c1.16,0,1.29-.14,1.29-1.32q0-9,0-18.07c0-1.65,0-1.66,1.63-1.66h15.58c1.08,0,1.22-.15,1.22-1.25q0-.54,0-1.07c0-1.28-.1-1.38-1.37-1.38H338.36c-.93,0-1.15-.18-1.15-1q0-6.78,0-13.57c0-.74.24-1,1-1h18.67c1,0,1.12-.16,1.12-1.14q0-.71,0-1.41c0-1-.16-1.19-1.22-1.19H334.39c-1.43,0-1.49.06-1.49,1.46Q332.9,400.76,332.9,411Zm160.17-55.81q0-9.44,0-18.87c0-1.21.11-1.31,1.29-1.31h11.69c.93,0,1.13-.21,1.14-1.15,0-.45,0-.9,0-1.34,0-1.08-.17-1.25-1.24-1.25H475.6c-.7,0-.92.23-.94.93s0,1.12,0,1.68c0,.94.2,1.13,1.15,1.13h11.55c1.33,0,1.42.08,1.42,1.4q0,18.64,0,37.27c0,.25,0,.49,0,.74a.79.79,0,0,0,.91.9h2.08c1.16,0,1.31-.15,1.31-1.31Q493.08,364.59,493.08,355.19ZM429,413q0-9.4,0-18.8c0-1.25.1-1.35,1.32-1.35H442c.9,0,1.1-.2,1.1-1.11,0-.45,0-.9,0-1.34,0-1.12-.17-1.29-1.27-1.29H411.43a.75.75,0,0,0-.83.83c0,.6,0,1.21,0,1.81,0,.92.17,1.09,1.1,1.09h11.62c1.25,0,1.39.13,1.39,1.37q0,18.7,0,37.41c0,.22,0,.45,0,.67,0,.59.3.86.88.85h2.15c1.12,0,1.28-.15,1.28-1.28Q429,422.39,429,413Zm-152.63-1.88v-.6q0-10.11,0-20.22c0-1-.19-1.2-1.22-1.2h-1.75c-1.23,0-1.33.1-1.33,1.34q0,20.69,0,41.37c0,.16,0,.31,0,.47a.76.76,0,0,0,.87.86h2.15c1.13,0,1.28-.15,1.28-1.27Q276.38,421.45,276.37,411.08Z" transform="translate(-102.12 -330.05)"/>
  <path fill="#fff" d="M102.12,431.63l31.91-58,21.45-39c.27-.49.55-1,.8-1.47a2,2,0,0,1,1.89-1.28,2.08,2.08,0,0,1,1.89,1.27q4.26,7.84,8.55,15.67c.4.73.77,1.46,1.2,2.17a.87.87,0,0,0,.6.39q8.8,0,17.6,0l.16-.05c-.12-.26-.23-.51-.37-.75q-4.21-7.72-8.42-15.43a3.3,3.3,0,0,1-.41-1.25,1.89,1.89,0,0,1,1.3-1.91,2,2,0,0,1,2.27.73,4.49,4.49,0,0,1,.28.46l10.39,19a2.11,2.11,0,0,1,.25,1.86,1.88,1.88,0,0,1-1.58,1.28,7.33,7.33,0,0,1-.94,0c-7.17,0-14.33,0-21.5,0a2.63,2.63,0,0,1-2.63-1.53c-2.72-5.07-5.5-10.1-8.26-15.14l-.4-.7-50.63,92H231.43c-.13-.27-.22-.49-.33-.69Q214,398.17,196.9,367a1.06,1.06,0,0,0-1.09-.64c-5.33,0-10.66,0-16,0H179c.18.35.29.6.42.84l23.1,43.28a7.61,7.61,0,0,1,.36.72,1.93,1.93,0,0,1-1.5,2.68,15.51,15.51,0,0,1-2.14.07H138.33c-1.54,0-2.47-.86-2.34-2.19a2.54,2.54,0,0,1,.32-.94l20.05-36.46a2,2,0,0,1,3.78,0q5.36,9.81,10.74,19.6a2,2,0,0,1-.38,2.78,2,2,0,0,1-3.05-.76q-2.66-4.82-5.29-9.65L158.64,380c-.12-.21-.25-.41-.42-.68l-16.87,30.66H197.7c-.1-.22-.18-.41-.28-.6q-11.66-21.85-23.34-43.68a2.12,2.12,0,0,1,1.92-3.27c7.14.06,14.29,0,21.43,0a2.29,2.29,0,0,1,2.21,1.32q18.41,33.57,36.84,67.12a2,2,0,0,1-1.89,3.2H104.46a2.28,2.28,0,0,1-2.34-1.62Z" transform="translate(-102.12 -330.05)"/>
  <path fill="#fff" d="M321.42,411.07q0,10.41,0,20.83c0,1.06-.14,1.2-1.2,1.2-.56,0-1.12,0-1.68,0a1.07,1.07,0,0,1-1.07-.63,328.88,328.88,0,0,0-21-31c-.9-1.2-1.86-2.35-2.8-3.52-.29-.37-.56-.81-1.15-.59s-.46.7-.46,1.14q0,16.59,0,33.19c0,1.31-.1,1.42-1.41,1.42h-2a.75.75,0,0,1-.83-.84c0-.16,0-.31,0-.47q0-20.72,0-41.45c0-1.13.16-1.19,1.26-1.31a3.78,3.78,0,0,1,3.63,1.65,276.09,276.09,0,0,1,22.89,31.55c.09.15.16.36.3.44a1.13,1.13,0,0,0,.71.22.93.93,0,0,0,.53-.51,2.11,2.11,0,0,0,.06-.79q0-15.55,0-31.1c0-1.36.06-1.42,1.46-1.42h1.55c1.06,0,1.21.15,1.21,1.19Q321.43,400.66,321.42,411.07Z" transform="translate(-102.12 -330.05)"/>
  <path fill="#fff" d="M364.17,411A26,26,0,0,1,367,398.59c3.37-6.31,8.7-9.68,15.76-10.37a20.46,20.46,0,0,1,13.13,2.9,19.38,19.38,0,0,1,8.73,12.49c1.56,6.59,1.37,13.13-1.61,19.34-3.18,6.62-8.59,10.19-15.84,11a19.81,19.81,0,0,1-22.28-16.35c-.45-2.16-.57-4.38-.84-6.58Zm4.55.07-.19,0c.33,2.23.49,4.5,1,6.68,1.91,8,7.7,12.55,15.6,12.43,6.6-.11,11.29-3.25,13.91-9.27,2.28-5.25,2.37-10.74,1.15-16.26a16.78,16.78,0,0,0-4.36-8.33A14.79,14.79,0,0,0,384.25,392c-6.09.19-10.56,3-13.3,8.44A23.77,23.77,0,0,0,368.72,411Z" transform="translate(-102.12 -330.05)"/>
  <path fill="#fff" d="M524,411q0-10.34,0-20.69c0-1.13.13-1.26,1.28-1.26h1.88c.93,0,1.14.21,1.14,1.15q0,8.33,0,16.66c0,1.22.13,1.34,1.34,1.34h21.23c1.2,0,1.36-.15,1.36-1.35q0-8.3,0-16.59c0-1.06.15-1.21,1.19-1.21.72,0,1.43,0,2.15,0s.93.26,1,.93c0,.13,0,.27,0,.4q0,20.69,0,41.38c0,1.21-.12,1.33-1.35,1.34H553.3c-.88,0-1.07-.19-1.07-1.06q0-6.28,0-12.56,0-3.19,0-6.38c0-1-.21-1.17-1.19-1.17H529.47c-1,0-1.17.18-1.17,1.18q0,9.37,0,18.74c0,1.09-.17,1.25-1.23,1.26H525c-.78,0-1-.21-1-1q0-5.51,0-11Q524,416,524,411Z" transform="translate(-102.12 -330.05)"/>
  <path fill="#fff" d="M309.08,375.31c-2.44,0-1.95.33-2.8-2-1.14-3.06-2.21-6.14-3.28-9.22a1.15,1.15,0,0,0-1.26-.91q-9.84,0-19.68,0a1.13,1.13,0,0,0-1.24.85c-1.22,3.43-2.5,6.85-3.7,10.28a1.22,1.22,0,0,1-1.43,1c-.67-.05-1.34,0-2,0-1,0-1.29-.37-.92-1.34,2.56-6.8,5-13.65,7.73-20.38,2.92-7.21,6.12-14.3,9.18-21.45a1.22,1.22,0,0,1,1.38-.88,12.38,12.38,0,0,0,1.95,0,1.15,1.15,0,0,1,1.28.81c2.09,4.8,4.33,9.53,6.27,14.38,3.67,9.17,7.18,18.41,10.75,27.62.32.83,0,1.23-.87,1.24ZM291.9,359.56h8c1,0,1.31-.4.93-1.35q-4.06-10.07-8.17-20.13c-.13-.31-.53-.72-.8-.72s-.67.41-.8.73q-4.06,10-8.05,20.1c-.39,1-.11,1.36,1,1.37Z" transform="translate(-102.12 -330.05)"/>
  <path fill="#fff" d="M403,346.5q0-7.05,0-14.11c0-1,.17-1.12,1.14-1.13h2.28a.77.77,0,0,1,.87.87c0,.47,0,.94,0,1.41q0,12.33,0,24.66a20.36,20.36,0,0,0,1,7c1.61,4.47,4.83,6.79,9.51,7.16a13.8,13.8,0,0,0,5.76-.68c3.63-1.29,5.6-4.06,6.51-7.63a21.83,21.83,0,0,0,.67-5.17c.07-8.78,0-17.56,0-26.34,0-1.14.14-1.28,1.27-1.28h2.08c.7,0,.95.24.95.91,0,9.38,0,18.77,0,28.15a19.28,19.28,0,0,1-1.47,7.33c-2,4.88-5.81,7.52-10.94,8.33a21.67,21.67,0,0,1-8.8-.31c-5.55-1.42-8.89-5-10.16-10.56a28,28,0,0,1-.68-5.58c-.1-4.34,0-8.69,0-13Z" transform="translate(-102.12 -330.05)"/>
  <path fill="#fff" d="M317.9,346.5q0-7.05,0-14.11c0-1,.17-1.12,1.14-1.13h2.28a.77.77,0,0,1,.87.87c0,.18,0,.36,0,.54q0,12.76,0,25.53a20.16,20.16,0,0,0,1.09,7.13c1.64,4.43,4.89,6.7,9.53,7a14.38,14.38,0,0,0,4.93-.44c4-1.12,6.28-4,7.28-7.87a21.56,21.56,0,0,0,.68-5.17c.07-8.78,0-17.56,0-26.34,0-1.14.13-1.28,1.26-1.28h2.08c.7,0,.95.24.95.91,0,9.38,0,18.77,0,28.15a19.77,19.77,0,0,1-1.1,6.33c-1.86,5.42-5.73,8.44-11.32,9.33a21.62,21.62,0,0,1-8.8-.31c-5.55-1.42-8.89-5-10.16-10.56a28,28,0,0,1-.68-5.58c-.1-4.34,0-8.69,0-13Z" transform="translate(-102.12 -330.05)"/>
  <path fill="#fff" d="M393.06,364.4c0,3,0,5.91,0,8.87,0,.53-.12.91-.68,1.08a36.13,36.13,0,0,1-16,1.57c-7.33-1.07-12.32-5.26-15-12.15a29.91,29.91,0,0,1-1.67-13.27,23.36,23.36,0,0,1,3-10.21,19.08,19.08,0,0,1,15.3-9.83,25.13,25.13,0,0,1,13.68,2.19c1.26.6,1.31.7.8,2l-.6,1.49a.72.72,0,0,1-1.14.41,21.78,21.78,0,0,0-11.91-2.28c-6.33.45-10.62,3.83-13.05,9.64a21,21,0,0,0-1.55,6.71A27.49,27.49,0,0,0,365.75,363,14,14,0,0,0,378,372.25a30.24,30.24,0,0,0,9.61-.55c1-.22,1.12-.33,1.12-1.39q0-7.29,0-14.58c0-1.11.14-1.25,1.22-1.25h2c.9,0,1.06.16,1.07,1.05Q393.07,360,393.06,364.4Z" transform="translate(-102.12 -330.05)"/>
  <path fill="#fff" d="M450,411q0-10.38,0-20.76c0-1.08.16-1.23,1.24-1.23h22.9c1.1,0,1.25.15,1.25,1.23,0,.51,0,1,0,1.54,0,.74-.23,1-1,1H455.49c-1,0-1.2.18-1.2,1.22q0,6.45,0,12.9c0,1,.16,1.22,1.19,1.22h16.39c1.09,0,1.23.14,1.23,1.24,0,.54,0,1.07,0,1.61a.72.72,0,0,1-.78.81H455.6c-1.17,0-1.31.14-1.31,1.32q0,7.52,0,15c0,1,.17,1.2,1.21,1.2h20.35c1,0,1.18.16,1.19,1.15q0,.74,0,1.48c0,1-.17,1.11-1.16,1.11H451.1c-.91,0-1.1-.19-1.1-1.1Q450,421.52,450,411Z" transform="translate(-102.12 -330.05)"/>
  <path fill="#fff" d="M456.24,376.28a29.29,29.29,0,0,1-12.34-2.44c-1-.47-1.07-.64-.69-1.65.2-.54.4-1.09.61-1.63.29-.74.59-.87,1.28-.52a23.57,23.57,0,0,0,11.83,2.46,15.13,15.13,0,0,0,5.92-1.3,6.41,6.41,0,0,0,3.79-5.46c.42-3.82-1-6.82-4.36-8.64-2.18-1.17-4.53-2-6.8-3-1.57-.7-3.16-1.38-4.69-2.16a18.64,18.64,0,0,1-2.66-1.69,9.86,9.86,0,0,1-4.12-8.53,12.37,12.37,0,0,1,.92-4.85,10,10,0,0,1,6.22-5.47,22.53,22.53,0,0,1,11.8-.62,21.49,21.49,0,0,1,5.78,1.89c.82.42.9.65.55,1.48-.25.6-.5,1.2-.76,1.79a.72.72,0,0,1-1.14.4,18.65,18.65,0,0,0-10.55-2.24,14.8,14.8,0,0,0-4,.79c-5.55,2-5.62,9.2-2.14,11.93a20.89,20.89,0,0,0,4,2.42c2.75,1.29,5.58,2.41,8.35,3.66a22.2,22.2,0,0,1,3.1,1.72c3.87,2.56,5.34,6.26,5,10.8-.4,5.64-3.88,8.75-9.34,10.14a15.24,15.24,0,0,1-2.11.4C458.36,376.13,457,376.22,456.24,376.28Z" transform="translate(-102.12 -330.05)"/>
  <path fill="#fff" d="M483.49,412.24c0-5.84.9-10.29,3.3-14.36A18.91,18.91,0,0,1,503,388.14,25.12,25.12,0,0,1,515,390.42c1,.48,1.09.64.7,1.7-.2.55-.39,1.09-.6,1.64-.27.7-.6.78-1.31.5a35,35,0,0,0-5.14-1.89,18.33,18.33,0,0,0-9.88.48,14.3,14.3,0,0,0-9.27,9.31,26.84,26.84,0,0,0,.13,18.42,14.14,14.14,0,0,0,13.5,9.59,25.62,25.62,0,0,0,11.21-1.94c.66-.29,1-.13,1.22.57s.4,1.23.62,1.84a.88.88,0,0,1-.59,1.26,30.83,30.83,0,0,1-17.13,1.54c-6.3-1.6-10.52-5.57-13-11.5A26.65,26.65,0,0,1,483.49,412.24Z" transform="translate(-102.12 -330.05)"/>
  <path fill="#fff" d="M332.9,411q0-10.24,0-20.49c0-1.4.06-1.46,1.49-1.46h22.37c1.06,0,1.21.15,1.22,1.19q0,.71,0,1.41c0,1-.16,1.14-1.12,1.14H338.18c-.73,0-1,.23-1,1q0,6.78,0,13.57c0,.82.22,1,1.15,1h15.92c1.26,0,1.37.11,1.37,1.38q0,.54,0,1.07c0,1.11-.14,1.25-1.22,1.25H338.84c-1.62,0-1.63,0-1.63,1.66q0,9,0,18.07c0,1.18-.14,1.32-1.29,1.32h-2c-.78,0-1-.21-1-1,0-1.37,0-2.73,0-4.1Q332.9,419.5,332.9,411Z" transform="translate(-102.12 -330.05)"/>
  <path fill="#fff" d="M493.08,355.19q0,9.4,0,18.8c0,1.17-.15,1.31-1.31,1.31h-2.08a.79.79,0,0,1-.91-.9c0-.25,0-.49,0-.74q0-18.64,0-37.27c0-1.31-.09-1.4-1.42-1.4H475.8c-.95,0-1.14-.19-1.15-1.13,0-.56,0-1.12,0-1.68s.25-.92.94-.93H506c1.07,0,1.23.17,1.24,1.25,0,.45,0,.9,0,1.34,0,.94-.21,1.15-1.14,1.15H494.37c-1.19,0-1.29.11-1.29,1.31Q493.08,345.75,493.08,355.19Z" transform="translate(-102.12 -330.05)"/>
  <path fill="#fff" d="M429,413q0,9.44,0,18.87c0,1.12-.15,1.27-1.28,1.28h-2.15c-.58,0-.88-.26-.88-.85,0-.22,0-.45,0-.67q0-18.7,0-37.41c0-1.24-.13-1.37-1.39-1.37H411.7c-.93,0-1.1-.17-1.1-1.09,0-.6,0-1.21,0-1.81a.75.75,0,0,1,.83-.83h30.42c1.1,0,1.27.17,1.27,1.29,0,.45,0,.9,0,1.34,0,.9-.21,1.11-1.1,1.11H430.33c-1.23,0-1.32.1-1.32,1.35Q429,403.55,429,413Z" transform="translate(-102.12 -330.05)"/>
  <path fill="#fff" d="M276.37,411.08q0,10.38,0,20.75c0,1.12-.15,1.27-1.28,1.27h-2.15a.76.76,0,0,1-.87-.86c0-.16,0-.31,0-.47q0-20.69,0-41.37c0-1.24.1-1.34,1.33-1.34h1.75c1,0,1.22.19,1.22,1.2q0,10.11,0,20.22Z" transform="translate(-102.12 -330.05)"/>
  <path fill="transparent" d="M368.72,411a23.77,23.77,0,0,1,2.23-10.61c2.74-5.48,7.22-8.25,13.3-8.44a14.79,14.79,0,0,1,11.59,4.32,16.78,16.78,0,0,1,4.36,8.33c1.22,5.52,1.13,11-1.15,16.26-2.62,6-7.31,9.17-13.91,9.27-7.9.13-13.68-4.46-15.6-12.43-.52-2.18-.68-4.45-1-6.68Z" transform="translate(-102.12 -330.05)"/>
  <path fill="transparent" d="M291.9,359.56H284c-1.09,0-1.37-.38-1-1.37q4-10.06,8.05-20.1c.13-.32.52-.72.8-.73s.67.4.8.72q4.11,10.05,8.17,20.13c.38,1,.1,1.35-.93,1.35Z" transform="translate(-102.12 -330.05)"/>
</svg>
