<svg xmlns="http://www.w3.org/2000/svg" viewBox="0 0 811.92 186">
  <title>logo.</title>
  <path d="M1206,573.08v3.12H394.08v-186H1206V496.28a7.79,7.79,0,0,0-2-.88,25.1,25.1,0,0,0-3.47,0c-2,0-2.2.25-2.2,2.22v29.51c0,2.22-.25,2.48-2.48,2.48h-38.64c-1.05,0-1.64-.5-1.61-1.61,0-.8,0-1.6,0-2.4v-28.2c0-1.59-.4-2-2-2h-3.24c-2.29,0-2.47.17-2.47,2.43v73.78c0,.28,0,.56,0,.84a1.39,1.39,0,0,0,1.6,1.62h4c1.81,0,2.13-.33,2.13-2.19V538.48c0-2,.26-2.28,2.27-2.28H1196c2,0,2.31.31,2.31,2.28v23.4c0,3.44,0,6.88,0,10.32,0,1.47.37,1.82,1.86,1.82,1.32,0,2.64,0,4,0A2,2,0,0,0,1206,573.08Z" transform="translate(-394.08 -390.2)" style="fill:transparent"/>
  <path d="M531.72,455c.4,0,.63-.08.86-.08q14.76,0,29.52,0a1.38,1.38,0,0,1,1.37.89c2.44,4.49,4.91,9,7.37,13.46q26.88,49,53.77,97.93c.23.42.45.85.73,1.4H404l90.44-164.35c.31.52.51.85.7,1.19,4.95,9.05,9.93,18.08,14.81,27.16a4.52,4.52,0,0,0,4.49,2.67c8.4-.07,16.8,0,25.2,0,4.6,0,9.2,0,13.8,0a5.73,5.73,0,0,0,2.83-.72c1.6-1,1.85-3,.81-4.89q-7.4-13.57-14.82-27.14c-1.34-2.45-2.66-4.92-4-7.36a3.42,3.42,0,0,0-3.64-1.77,3.37,3.37,0,0,0-2.87,2.55,4,4,0,0,0,.6,3.21q7.58,13.82,15.12,27.66c.22.4.4.82.65,1.33-.36,0-.55.06-.75.06-10.28,0-20.56,0-30.83,0a1.39,1.39,0,0,1-1.37-.9c-1.94-3.58-3.9-7.16-5.85-10.73q-5.77-10.58-11.56-21.15c-1.53-2.79-4.85-2.86-6.44-.16-.48.82-.93,1.67-1.39,2.51L395.11,569.9c-1.73,3.15-.15,5.82,3.46,5.82H630.88c3.52,0,5.09-2.69,3.39-5.78l-8.13-14.82q-28.78-52.43-57.57-104.86a4.09,4.09,0,0,0-3.85-2.51c-12.88,0-25.76,0-38.64,0-3.28,0-4.83,2.71-3.28,5.63q20.84,39,41.66,78c.2.37.37.75.61,1.24H464.38l30.16-54.8c.31.52.52.86.71,1.2l8.06,14.71c2.58,4.7,5.14,9.4,7.73,14.09a3.56,3.56,0,0,0,5.09,1.53c1.73-1.07,2.16-3.1,1-5.16q-9.58-17.5-19.17-35a3.65,3.65,0,0,0-6.82,0q-17.87,32.5-35.75,65a4.69,4.69,0,0,0-.6,1.79c-.2,2.41,1.46,3.85,4.37,3.85H567.54a30.65,30.65,0,0,0,4.07-.12,3.44,3.44,0,0,0,2.7-4.87,12.82,12.82,0,0,0-.65-1.28l-41.25-77.29C532.19,455.9,532,455.49,531.72,455Z" transform="translate(-394.08 -390.2)" style="fill:transparent"/>
  <path d="M786,534.66q0-18.66,0-37.32c0-1.63-.34-2-1.95-2H781c-2.29,0-2.45.16-2.45,2.44q0,27.78,0,55.56a3.74,3.74,0,0,1,0,1.3c-.18.44-.54,1-.91,1.1a2.58,2.58,0,0,1-1.45-.48c-.22-.11-.31-.45-.46-.69a489,489,0,0,0-40.9-56.34c-1.77-2.11-3.52-3.31-6.36-2.95-2.07.27-2.35.3-2.35,2.38v74.75c0,1.1.54,1.61,1.63,1.6h3c2.94,0,3,0,3-2.91V512.56a4.06,4.06,0,0,1,0-1.31,1.76,1.76,0,0,1,.82-1,2,2,0,0,1,1.31.25c.29.14.49.51.71.79a548,548,0,0,1,40.92,59.13c1.65,2.74,3.24,4.18,6.5,3.69,1.82-.28,2.1-.31,2.1-2.22Z" transform="translate(-394.08 -390.2)" style="fill:transparent"/>
  <path d="M862.1,534.72c.47,3.84.71,7.73,1.48,11.5,1.74,8.54,5.61,16,12.46,21.57,8,6.49,17.23,8.72,27.29,7.69,13.21-1.36,23.09-7.88,28.55-20.08,6-13.34,5.94-27,.44-40.54A32.57,32.57,0,0,0,913,496.12a38.19,38.19,0,0,0-19.58-2c-11.49,1.74-20.18,7.57-25.81,17.81C863.73,519,862.4,526.7,862.1,534.72Z" transform="translate(-394.08 -390.2)" style="fill:transparent"/>
  <path d="M764,470.8c.8,0,1.6,0,2.4,0,1.54,0,2.08-.73,1.53-2.13-6.84-17.56-13.59-35.16-20.59-52.65-3-7.6-6.58-15-9.86-22.49a2,2,0,0,0-2.2-1.41,16.26,16.26,0,0,1-3.12,0c-1.6-.18-2.41.47-3.09,1.93-8.84,19-16.66,38.38-24,58-2,5.39-4,10.79-6,16.18-.73,2-.31,2.59,1.74,2.59,1.2,0,2.41-.06,3.6,0a2.06,2.06,0,0,0,2.36-1.66c2.16-6.14,4.44-12.24,6.61-18.37a2.07,2.07,0,0,1,2.29-1.59q17.52.06,35,0a2.11,2.11,0,0,1,2.35,1.66c1.9,5.51,3.83,11,5.86,16.47C760.52,471.4,759.65,470.75,764,470.8Z" transform="translate(-394.08 -390.2)" style="fill:transparent"/>
  <path d="M931.66,419.31h0c0,7.8-.12,15.61.05,23.4a50.72,50.72,0,0,0,1.23,10c2.09,9.09,7.44,15.45,16.49,18.31a37.62,37.62,0,0,0,17.45,1c9.42-1.5,16.22-6.45,19.71-15.5a40.86,40.86,0,0,0,2.44-14.82V393.92c0-1.39-.39-1.77-1.78-1.78-1.2,0-2.4,0-3.6,0-2,0-2.3.24-2.3,2.25,0,15.72.06,31.44-.06,47.16a39,39,0,0,1-1.22,9.24c-1.43,5.63-4.44,10.25-9.92,12.83a23.32,23.32,0,0,1-11.71,1.93c-7.75-.52-13.52-4-16.68-11.32a33.85,33.85,0,0,1-2.44-13.71q0-17.76,0-35.52V394.07c0-1.55-.38-1.93-1.89-1.93h-3.72c-1.8,0-2.06.28-2.06,2.1Q931.66,406.77,931.66,419.31Z" transform="translate(-394.08 -390.2)" style="fill:transparent"/>
  <path d="M779.74,419.36c0,7.27-.1,14.56,0,21.83a59.9,59.9,0,0,0,1,10.36c1.88,9.54,7.18,16.35,16.66,19.42a37.21,37.21,0,0,0,14,1.43,30.38,30.38,0,0,0,11-2.6c8.28-3.88,12.37-10.79,13.87-19.46a51.43,51.43,0,0,0,.75-8.58c.07-15.88,0-31.76,0-47.64,0-1.66-.32-2-2-2H831.7c-2,0-2.25.25-2.25,2.3q0,23.52,0,47A33.27,33.27,0,0,1,828,451.52c-2.06,6.55-6,11.33-12.82,13.22a25.52,25.52,0,0,1-8.56.8c-8.24-.53-14.11-4.4-17.14-12.25a32.27,32.27,0,0,1-2-11.74q0-23.46,0-46.92v-1a1.39,1.39,0,0,0-1.57-1.54h-4.08c-1.72,0-2,.31-2,2Z" transform="translate(-394.08 -390.2)" style="fill:transparent"/>
  <path d="M914,451.34c0-5.31,0-10.63,0-15.95,0-1.47-.31-1.77-1.77-1.78H908.5c-1.94,0-2.19.25-2.19,2.22v26c0,1.91-.14,2.1-2,2.49a54.16,54.16,0,0,1-17.17,1c-10.57-1.13-18-6.64-22-16.51-2.88-7.12-3.29-14.61-2.77-22.17a38.7,38.7,0,0,1,2.76-12c4.6-11.28,13.87-17.46,26.06-17.34,6.47.07,12.73,1.1,18.53,4.17a1.28,1.28,0,0,0,2-.71c.51-1.26,1-2.52,1.51-3.78a1.31,1.31,0,0,0-.68-1.81q-.74-.39-1.5-.75a44.55,44.55,0,0,0-24.1-3.78c-12.24,1.28-21.56,7.25-27.62,18.06a42,42,0,0,0-5.13,17.83c-.55,8.05,0,16,3,23.59,5.05,12.76,14.37,20.25,28,21.86a65.84,65.84,0,0,0,27-2.78,2,2,0,0,0,1.69-2.31C914,461.74,914,456.54,914,451.34Z" transform="translate(-394.08 -390.2)" style="fill:transparent"/>
  <path d="M1015.68,534.7v37.19c0,1.87.27,2.14,2.16,2.14h44c1.88,0,2.12-.25,2.12-2.17q0-1.14,0-2.28c0-2-.24-2.23-2.18-2.23h-36.36c-1.77,0-2.09-.32-2.09-2.09v-27c0-2,.27-2.28,2.28-2.28h28.8c.4,0,.8,0,1.2,0a1.26,1.26,0,0,0,1.32-1.38v-3c0-1.87-.28-2.15-2.14-2.15h-29.16c-2.09,0-2.3-.22-2.3-2.36V504.27c0-1.94.29-2.24,2.2-2.24h34a1.35,1.35,0,0,0,1.54-1.55c0-1,0-2,0-3,0-1.84-.3-2.12-2.18-2.12h-41c-1.86,0-2.16.29-2.16,2.15Z" transform="translate(-394.08 -390.2)" style="fill:transparent"/>
  <path d="M1025.65,472.52l0,.31c3.71-.51,7.49-.72,11.12-1.59,9.79-2.35,16-8,16.67-18.08.44-6.36-1-12.08-5.69-16.67a29.13,29.13,0,0,0-8.7-5.66c-5-2.2-10.08-4.25-15-6.57a37.74,37.74,0,0,1-7-4.17c-6.46-4.95-6.25-18,3.78-21.51a27.14,27.14,0,0,1,7-1.38,33.33,33.33,0,0,1,18.85,4,1.27,1.27,0,0,0,2-.62c.58-1.27,1.11-2.57,1.63-3.87a1.26,1.26,0,0,0-.6-1.73,14.06,14.06,0,0,0-1.59-.82,44,44,0,0,0-27.46-2.69c-4.7,1.06-9,3.11-11.91,7.09-4.42,6-4.83,12.75-2.52,19.63,1.54,4.59,5.07,7.64,9.18,9.9,3.24,1.78,6.66,3.26,10,4.78,3.89,1.76,8,3.18,11.72,5.15,6,3.12,8.77,8.15,8.25,15-.39,5-2.63,8.62-7.28,10.67a27.72,27.72,0,0,1-10.15,2.11,42.1,42.1,0,0,1-21.12-4.41c-1.19-.6-1.77-.37-2.25.85-.39,1-.75,2-1.13,3-.65,1.75-.53,2.1,1.14,2.88A50.47,50.47,0,0,0,1025.65,472.52Z" transform="translate(-394.08 -390.2)" style="fill:transparent"/>
  <path d="M1083.64,534.73a49.14,49.14,0,0,1,1.65-13c2.57-9.1,7.75-16,16.86-19.36a33.07,33.07,0,0,1,19.49-.87,56,56,0,0,1,8,3.12c1.31.55,1.89.38,2.4-1,.34-.86.65-1.72,1-2.58.84-2.27.8-2.38-1.46-3.42a47.36,47.36,0,0,0-16.45-3.94c-15.2-1.2-28.44,6.32-35.11,20a45.29,45.29,0,0,0-4.43,18.39,51.56,51.56,0,0,0,3,20.85c4.45,11.48,12.39,19.12,24.59,21.88a46.76,46.76,0,0,0,19.07,0c3.63-.68,7.15-1.94,10.7-3a1.47,1.47,0,0,0,1-2.17c-.4-1.13-.75-2.28-1.15-3.41s-1-1.44-2.12-.94a44.64,44.64,0,0,1-20.5,3.44c-10.44-.53-18.14-5.38-22.74-14.85C1084.55,547.92,1083.72,541.48,1083.64,534.73Z" transform="translate(-394.08 -390.2)" style="fill:transparent"/>
  <path d="M806.53,534.61v36.47c0,.36,0,.72,0,1.08,0,1.51.36,1.85,1.83,1.86H812c2,0,2.26-.28,2.26-2.3V538.85c0-2.22.21-2.43,2.49-2.43H845c1.85,0,2.12-.29,2.12-2.18v-2c0-2.22-.19-2.41-2.38-2.41H816.35c-1.81,0-2.12-.31-2.12-2.08V504.07c0-1.7.34-2,2-2h19.43c4.6,0,9.2,0,13.8,0,1.49,0,1.82-.34,1.83-1.85,0-.87,0-1.75,0-2.63,0-1.95-.25-2.19-2.23-2.19H808.9c-2.16,0-2.37.21-2.37,2.42Z" transform="translate(-394.08 -390.2)" style="fill:transparent"/>
  <path d="M1092.63,434.84V401.26c0-.4-.13-.89,0-1.18a4.17,4.17,0,0,1,1.22-1.22c.26-.17.7,0,1.06,0h21c1.46,0,1.86-.4,1.89-1.84,0-.87,0-1.75,0-2.63,0-1.91-.3-2.21-2.24-2.21h-54.22c-1.22,0-1.62.43-1.65,1.69,0,.92,0,1.84,0,2.76,0,2,.27,2.23,2.2,2.23h21c1.71,0,2,.3,2,2,0,.4,0,.8,0,1.2v65.61c0,.4,0,.8,0,1.2,0,1.57.36,1.92,1.9,1.93h3.47c2.06,0,2.32-.26,2.32-2.37Z" transform="translate(-394.08 -390.2)" style="fill:transparent"/>
  <path d="M978.19,538.07V504.36c0-2.12.21-2.33,2.34-2.33q10.49,0,21,0c1.46,0,1.86-.4,1.87-1.83,0-.84,0-1.68,0-2.52,0-2.05-.28-2.32-2.36-2.32h-54c-1.33,0-1.73.4-1.75,1.7,0,1,0,2,0,3,0,1.68.3,2,2,2q10.38,0,20.75,0c2.3,0,2.51.22,2.51,2.55v66.7c0,.4,0,.8,0,1.2a1.35,1.35,0,0,0,1.54,1.55h3.6c2.36,0,2.54-.18,2.54-2.49Z" transform="translate(-394.08 -390.2)" style="fill:transparent"/>
  <path d="M697.89,534.72v36.83c0,2.36.12,2.48,2.53,2.48h2.76c2.17,0,2.39-.22,2.39-2.41V497.24c0-1.45-.42-1.87-1.84-1.88H700c-1.85,0-2.12.27-2.12,2.17Z" transform="translate(-394.08 -390.2)" style="fill:transparent"/>
  <path d="M1206,573.08a2,2,0,0,1-1.9,1c-1.32-.06-2.64,0-4,0-1.49,0-1.85-.35-1.86-1.82,0-3.44,0-6.88,0-10.32v-23.4c0-2-.31-2.28-2.31-2.28h-38.15c-2,0-2.27.26-2.27,2.28v33.36c0,1.86-.32,2.18-2.13,2.19h-4a1.39,1.39,0,0,1-1.6-1.62c0-.28,0-.56,0-.84V497.79c0-2.26.18-2.43,2.47-2.43h3.24c1.58,0,2,.4,2,2v28.2c0,.8,0,1.6,0,2.4,0,1.11.56,1.59,1.61,1.61h38.64c2.23,0,2.48-.26,2.48-2.48V497.58c0-2,.25-2.22,2.2-2.22a25.1,25.1,0,0,1,3.47,0,7.79,7.79,0,0,1,2,.88Z" transform="translate(-394.08 -390.2)"/>
  <path d="M531.72,455c.27.54.47.95.69,1.36l41.25,77.29a12.82,12.82,0,0,1,.65,1.28,3.44,3.44,0,0,1-2.7,4.87,30.65,30.65,0,0,1-4.07.12H459.19c-2.91,0-4.57-1.44-4.37-3.85a4.69,4.69,0,0,1,.6-1.79q17.86-32.51,35.75-65a3.65,3.65,0,0,1,6.82,0q9.56,17.5,19.17,35c1.13,2.06.7,4.09-1,5.16a3.56,3.56,0,0,1-5.09-1.53c-2.59-4.69-5.15-9.39-7.73-14.09l-8.06-14.71c-.19-.34-.4-.68-.71-1.2l-30.16,54.8H565.07c-.24-.49-.41-.87-.61-1.24q-20.82-39-41.66-78c-1.55-2.92,0-5.63,3.28-5.63,12.88,0,25.76,0,38.64,0a4.09,4.09,0,0,1,3.85,2.51q28.77,52.44,57.57,104.86l8.13,14.82c1.7,3.09.13,5.78-3.39,5.78H398.57c-3.61,0-5.19-2.67-3.46-5.82l94.78-172.23c.46-.84.91-1.69,1.39-2.51,1.59-2.7,4.91-2.63,6.44.16q5.8,10.56,11.56,21.15c2,3.57,3.91,7.15,5.85,10.73a1.39,1.39,0,0,0,1.37.9c10.27,0,20.55,0,30.83,0,.2,0,.39,0,.75-.06-.25-.51-.43-.93-.65-1.33q-7.56-13.85-15.12-27.66a4,4,0,0,1-.6-3.21,3.37,3.37,0,0,1,2.87-2.55,3.42,3.42,0,0,1,3.64,1.77c1.37,2.44,2.69,4.91,4,7.36q7.41,13.58,14.82,27.14c1,1.92.79,3.92-.81,4.89a5.73,5.73,0,0,1-2.83.72c-4.6.07-9.2,0-13.8,0-8.4,0-16.8,0-25.2,0a4.52,4.52,0,0,1-4.49-2.67c-4.88-9.08-9.86-18.11-14.81-27.16-.19-.34-.39-.67-.7-1.19L404,568.53H625.34c-.28-.55-.5-1-.73-1.4q-26.88-49-53.77-97.93c-2.46-4.49-4.93-9-7.37-13.46a1.38,1.38,0,0,0-1.37-.89q-14.76,0-29.52,0C532.35,454.87,532.12,454.91,531.72,455Z" transform="translate(-394.08 -390.2)"/>
  <path d="M786,534.66v37.2c0,1.91-.28,1.94-2.1,2.22-3.26.49-4.85-1-6.5-3.69a548,548,0,0,0-40.92-59.13c-.22-.28-.42-.65-.71-.79a2,2,0,0,0-1.31-.25,1.76,1.76,0,0,0-.82,1,4.06,4.06,0,0,0,0,1.31v58.56c0,2.88,0,2.91-3,2.91h-3c-1.09,0-1.64-.5-1.63-1.6V497.68c0-2.08.28-2.11,2.35-2.38,2.84-.36,4.59.84,6.36,2.95a489,489,0,0,1,40.9,56.34c.15.24.24.58.46.69a2.58,2.58,0,0,0,1.45.48c.37-.09.73-.66.91-1.1a3.74,3.74,0,0,0,0-1.3q0-27.78,0-55.56c0-2.28.16-2.44,2.45-2.44h3.12c1.61,0,1.95.35,1.95,2Q786,516,786,534.66Z" transform="translate(-394.08 -390.2)"/>
  <path d="M862.1,534.72c.3-8,1.63-15.71,5.52-22.8,5.63-10.24,14.32-16.07,25.81-17.81a38.19,38.19,0,0,1,19.58,2,32.57,32.57,0,0,1,19.31,18.74c5.5,13.51,5.52,27.2-.44,40.54-5.46,12.2-15.34,18.72-28.55,20.08-10.06,1-19.33-1.2-27.29-7.69-6.85-5.59-10.72-13-12.46-21.57C862.81,542.45,862.57,538.56,862.1,534.72Zm8.41-.18-.35.05c.59,4,.87,8.11,1.82,12,3.43,14.23,13.77,22.4,27.89,22.16,11.78-.2,20.15-5.83,24.82-16.6,4.08-9.42,4.24-19.26,2-29.16a29.21,29.21,0,0,0-9.62-16.47c-5.46-4.56-11.88-6.21-18.86-6-10.82.37-18.8,5.29-23.69,15C871.53,521.55,870.58,528,870.51,534.54Z" transform="translate(-394.08 -390.2)"/>
  <path d="M764,470.8c-4.38-.05-3.51.6-5-3.47-2-5.46-4-11-5.86-16.47a2.11,2.11,0,0,0-2.35-1.66q-17.52.06-35,0a2.07,2.07,0,0,0-2.29,1.59c-2.17,6.13-4.45,12.23-6.61,18.37a2.06,2.06,0,0,1-2.36,1.66c-1.19-.08-2.4,0-3.6,0-2,0-2.47-.61-1.74-2.59,2-5.39,4-10.79,6-16.18,7.31-19.61,15.13-39,24-58,.68-1.46,1.49-2.11,3.09-1.93a16.26,16.26,0,0,0,3.12,0,2,2,0,0,1,2.2,1.41c3.28,7.5,6.83,14.89,9.86,22.49,7,17.49,13.75,35.09,20.59,52.65.55,1.4,0,2.11-1.53,2.13C765.63,470.82,764.83,470.8,764,470.8Zm-30.8-28.12h14.28c1.93,0,2.41-.68,1.69-2.47q-7.25-17.94-14.54-35.84a2.52,2.52,0,0,0-1.41-1.37c-.9-.23-1.23.65-1.52,1.38q-7.15,17.89-14.31,35.8c-.73,1.83-.23,2.49,1.78,2.5Z" transform="translate(-394.08 -390.2)"/>
  <path d="M931.66,419.31q0-12.54,0-25.08c0-1.82.26-2.09,2.06-2.1h3.72c1.51,0,1.89.38,1.89,1.93V405q0,17.76,0,35.52a33.85,33.85,0,0,0,2.44,13.71c3.16,7.3,8.93,10.8,16.68,11.32a23.32,23.32,0,0,0,11.71-1.93c5.48-2.58,8.49-7.2,9.92-12.83a39,39,0,0,0,1.22-9.24c.12-15.72.06-31.44.06-47.16,0-2,.25-2.25,2.3-2.25,1.2,0,2.4,0,3.6,0,1.39,0,1.77.39,1.78,1.78v47.76a40.86,40.86,0,0,1-2.44,14.82c-3.49,9.05-10.29,14-19.71,15.5a37.62,37.62,0,0,1-17.45-1c-9.05-2.86-14.4-9.22-16.49-18.31a50.72,50.72,0,0,1-1.23-10c-.17-7.79-.05-15.6-.05-23.4Z" transform="translate(-394.08 -390.2)"/>
  <path d="M779.74,419.36v-25.2c0-1.72.31-2,2-2h4.08a1.39,1.39,0,0,1,1.57,1.54v1q0,23.46,0,46.92a32.27,32.27,0,0,0,2,11.74c3,7.85,8.9,11.72,17.14,12.25a25.52,25.52,0,0,0,8.56-.8c6.86-1.89,10.76-6.67,12.82-13.22a33.27,33.27,0,0,0,1.44-10.06q0-23.5,0-47c0-2.05.24-2.29,2.25-2.3h3.48c1.63,0,2,.33,2,2,0,15.88,0,31.76,0,47.64a51.43,51.43,0,0,1-.75,8.58c-1.5,8.67-5.59,15.58-13.87,19.46a30.38,30.38,0,0,1-11,2.6,37.21,37.21,0,0,1-14-1.43c-9.48-3.07-14.78-9.88-16.66-19.42a59.9,59.9,0,0,1-1-10.36C779.64,433.92,779.74,426.63,779.74,419.36Z" transform="translate(-394.08 -390.2)"/>
  <path d="M914,451.34c0,5.2,0,10.4,0,15.6a2,2,0,0,1-1.69,2.31,65.84,65.84,0,0,1-27,2.78c-13.66-1.61-23-9.1-28-21.86-3-7.6-3.55-15.54-3-23.59a42,42,0,0,1,5.13-17.83C865.48,397.94,874.8,392,887,390.69a44.55,44.55,0,0,1,24.1,3.78q.76.36,1.5.75a1.31,1.31,0,0,1,.68,1.81c-.49,1.26-1,2.52-1.51,3.78a1.28,1.28,0,0,1-2,.71c-5.8-3.07-12.06-4.1-18.53-4.17-12.19-.12-21.46,6.06-26.06,17.34a38.7,38.7,0,0,0-2.76,12c-.52,7.56-.11,15.05,2.77,22.17,4,9.87,11.39,15.38,22,16.51a54.16,54.16,0,0,0,17.17-1c1.84-.39,2-.58,2-2.49v-26c0-2,.25-2.22,2.19-2.22h3.72c1.46,0,1.77.31,1.77,1.78C914,440.71,914,446,914,451.34Z" transform="translate(-394.08 -390.2)"/>
  <path d="M1015.68,534.7V497.51c0-1.86.3-2.15,2.16-2.15h41c1.88,0,2.17.28,2.18,2.12,0,1,0,2,0,3a1.35,1.35,0,0,1-1.54,1.55h-34c-1.91,0-2.2.3-2.2,2.24v22.79c0,2.14.21,2.36,2.3,2.36h29.16c1.86,0,2.14.28,2.14,2.15v3a1.26,1.26,0,0,1-1.32,1.38c-.4,0-.8,0-1.2,0h-28.8c-2,0-2.28.28-2.28,2.28v27c0,1.77.32,2.09,2.09,2.09h36.36c1.94,0,2.18.25,2.18,2.23q0,1.14,0,2.28c0,1.92-.24,2.16-2.12,2.17h-44c-1.89,0-2.16-.27-2.16-2.14Z" transform="translate(-394.08 -390.2)"/>
  <path d="M1025.65,472.52a50.47,50.47,0,0,1-21-4.38c-1.67-.78-1.79-1.13-1.14-2.88.38-1,.74-2,1.13-3,.48-1.22,1.06-1.45,2.25-.85a42.1,42.1,0,0,0,21.12,4.41,27.72,27.72,0,0,0,10.15-2.11c4.65-2.05,6.89-5.68,7.28-10.67.52-6.82-2.3-11.85-8.25-15-3.77-2-7.83-3.39-11.72-5.15-3.39-1.52-6.81-3-10-4.78-4.11-2.26-7.64-5.31-9.18-9.9-2.31-6.88-1.9-13.6,2.52-19.63,2.92-4,7.21-6,11.91-7.09a44,44,0,0,1,27.46,2.69,14.06,14.06,0,0,1,1.59.82,1.26,1.26,0,0,1,.6,1.73c-.52,1.3-1,2.6-1.63,3.87a1.27,1.27,0,0,1-2,.62,33.33,33.33,0,0,0-18.85-4,27.14,27.14,0,0,0-7,1.38c-10,3.5-10.24,16.56-3.78,21.51a37.74,37.74,0,0,0,7,4.17c5,2.32,10,4.37,15,6.57a29.13,29.13,0,0,1,8.7,5.66c4.72,4.59,6.13,10.31,5.69,16.67-.7,10.07-6.88,15.73-16.67,18.08-3.63.87-7.41,1.08-11.12,1.59Z" transform="translate(-394.08 -390.2)"/>
  <path d="M1083.64,534.73c.08,6.75.91,13.19,3.81,19.18,4.6,9.47,12.3,14.32,22.74,14.85a44.64,44.64,0,0,0,20.5-3.44c1.14-.5,1.71-.21,2.12.94s.75,2.28,1.15,3.41a1.47,1.47,0,0,1-1,2.17c-3.55,1-7.07,2.3-10.7,3a46.76,46.76,0,0,1-19.07,0c-12.2-2.76-20.14-10.4-24.59-21.88a51.56,51.56,0,0,1-3-20.85,45.29,45.29,0,0,1,4.43-18.39c6.67-13.68,19.91-21.2,35.11-20a47.36,47.36,0,0,1,16.45,3.94c2.26,1,2.3,1.15,1.46,3.42-.32.86-.63,1.72-1,2.58-.51,1.34-1.09,1.51-2.4,1a56,56,0,0,0-8-3.12,33.07,33.07,0,0,0-19.49.87c-9.11,3.35-14.29,10.26-16.86,19.36A49.14,49.14,0,0,0,1083.64,534.73Z" transform="translate(-394.08 -390.2)"/>
  <path d="M806.53,534.61V497.78c0-2.21.21-2.42,2.37-2.42h40.19c2,0,2.23.24,2.23,2.19,0,.88,0,1.76,0,2.63,0,1.51-.34,1.85-1.83,1.85-4.6,0-9.2,0-13.8,0H816.26c-1.69,0-2,.33-2,2v23.64c0,1.77.31,2.07,2.12,2.08h28.43c2.19,0,2.38.19,2.38,2.41v2c0,1.89-.27,2.18-2.12,2.18H816.72c-2.28,0-2.49.21-2.49,2.43v32.88c0,2-.27,2.29-2.26,2.3h-3.6c-1.47,0-1.8-.35-1.83-1.86,0-.36,0-.72,0-1.08Z" transform="translate(-394.08 -390.2)"/>
  <path d="M1092.63,434.84v33.59c0,2.11-.26,2.37-2.32,2.37h-3.47c-1.54,0-1.88-.36-1.9-1.93,0-.4,0-.8,0-1.2V402.06c0-.4,0-.8,0-1.2,0-1.74-.31-2-2-2h-21c-1.93,0-2.2-.27-2.2-2.23,0-.92,0-1.84,0-2.76,0-1.26.43-1.65,1.65-1.69h54.22c1.94,0,2.23.3,2.24,2.21,0,.88,0,1.76,0,2.63,0,1.44-.43,1.84-1.89,1.84h-21c-.36,0-.8-.13-1.06,0a4.17,4.17,0,0,0-1.22,1.22c-.18.29,0,.78,0,1.18Z" transform="translate(-394.08 -390.2)"/>
  <path d="M978.19,538.07v33.47c0,2.31-.18,2.49-2.54,2.49h-3.6a1.35,1.35,0,0,1-1.54-1.55c0-.4,0-.8,0-1.2v-66.7c0-2.33-.21-2.55-2.51-2.55q-10.37,0-20.75,0c-1.65,0-1.94-.29-2-2,0-1,0-2,0-3,0-1.3.42-1.67,1.75-1.7h54c2.08,0,2.35.27,2.36,2.32,0,.84,0,1.68,0,2.52,0,1.43-.41,1.83-1.87,1.83q-10.5,0-21,0c-2.13,0-2.34.21-2.34,2.33Z" transform="translate(-394.08 -390.2)"/>
  <path d="M697.89,534.72V497.53c0-1.9.27-2.17,2.12-2.17h3.72c1.42,0,1.82.43,1.84,1.88v74.38c0,2.19-.22,2.41-2.39,2.41h-2.76c-2.41,0-2.53-.12-2.53-2.48Z" transform="translate(-394.08 -390.2)"/>
  <path d="M870.51,534.54c.07-6.59,1-13,4-18.94,4.89-9.72,12.87-14.64,23.69-15,7-.24,13.4,1.41,18.86,6A29.21,29.21,0,0,1,926.69,523c2.24,9.9,2.08,19.74-2,29.16-4.67,10.77-13,16.4-24.82,16.6-14.12.24-24.46-7.93-27.89-22.16-1-3.93-1.23-8-1.82-12Z" transform="translate(-394.08 -390.2)" style="fill:transparent"/>
  <path d="M733.23,442.68h-14c-2,0-2.51-.67-1.78-2.5q7.14-17.91,14.31-35.8c.29-.73.62-1.61,1.52-1.38a2.52,2.52,0,0,1,1.41,1.37q7.32,17.89,14.54,35.84c.72,1.79.24,2.46-1.69,2.47Z" transform="translate(-394.08 -390.2)" style="fill:transparent"/>
</svg>
