<svg height="448pt" viewBox="-5 0 448 448" width="448pt" xmlns="http://www.w3.org/2000/svg"><path d="m219.183594 224.855469 32.886718-67.335938-32.871093-67.296875-32.871094 67.3125zm0 0"/><path d="m171.199219 48h-8v62.160156l8 16.382813zm0 0"/><path d="m196.542969 20.441406c-1.792969-2.691406-1.792969-6.191406 0-8.882812l7.714843-11.558594h-41.058593v32h41.058593zm0 0"/><path d="m155.199219 208c3.109375 0 5.933593 1.800781 7.25 4.617188l30.640625 65.664062 17.191406-35.203125-55.082031-112.847656-155.199219 317.769531h38.105469l109.847656-235.382812c1.3125-2.816407 4.140625-4.617188 7.246094-4.617188zm0 0"/><path d="m283.199219 130.222656-83.085938 170.128906c-1.367187 2.753907-4.179687 4.496094-7.257812 4.488282-3.089844-.019532-5.890625-1.816406-7.199219-4.617188l-30.457031-65.3125-99.4375 213.089844h382.636719zm0 0"/></svg>