<svg id="Layer_1" data-name="Layer 1" xmlns="http://www.w3.org/2000/svg" width="240.55" height="182.54" viewBox="0 0 240.55 182.54">
  <defs>
    <style>
      .cls-1 {
        fill: #ffffff;
      }
    </style>
  </defs>
  <title>logo</title>
  <path class="cls-1" d="M137.31,61.73c.27.54.47,1,.69,1.36l41.25,77.29a12.81,12.81,0,0,1,.65,1.28,3.44,3.44,0,0,1-2.7,4.87,30.65,30.65,0,0,1-4.07.12H64.78c-2.91,0-4.57-1.44-4.37-3.85A4.69,4.69,0,0,1,61,141Q78.87,108.5,96.76,76a3.65,3.65,0,0,1,6.82,0q9.56,17.5,19.17,35c1.13,2.06.7,4.09-1,5.16a3.56,3.56,0,0,1-5.09-1.53c-2.59-4.69-5.15-9.39-7.73-14.09l-8.06-14.71c-.19-.34-.4-.68-.71-1.2L70,139.44H170.66c-.24-.49-.41-.87-.61-1.24q-20.82-39-41.66-78c-1.55-2.92,0-5.63,3.28-5.63h38.64a4.09,4.09,0,0,1,3.85,2.51q28.77,52.44,57.57,104.86l8.13,14.82c1.7,3.09.13,5.78-3.39,5.78H4.16c-3.61,0-5.19-2.67-3.46-5.82L95.48,4.49c.46-.84.91-1.69,1.39-2.51,1.59-2.7,4.91-2.63,6.44.16q5.8,10.56,11.56,21.15c2,3.57,3.91,7.15,5.85,10.73a1.39,1.39,0,0,0,1.37.9h30.83a3.91,3.91,0,0,0,.75-.06c-.25-.51-.43-.93-.65-1.33Q145.46,19.68,137.9,5.87a4,4,0,0,1-.6-3.21A3.37,3.37,0,0,1,140.17.11a3.42,3.42,0,0,1,3.64,1.77c1.37,2.44,2.69,4.91,4,7.36l14.82,27.14c1,1.92.79,3.92-.81,4.89A5.73,5.73,0,0,1,159,42c-4.6.07-9.2,0-13.8,0H120a4.52,4.52,0,0,1-4.49-2.67c-4.88-9.08-9.86-18.11-14.81-27.16-.19-.34-.39-.67-.7-1.19L9.59,175.26H230.93c-.28-.55-.5-1-.73-1.4q-26.88-49-53.77-97.93l-7.37-13.46a1.38,1.38,0,0,0-1.37-.89H138.17A6.25,6.25,0,0,0,137.31,61.73Z"/>
</svg>
